/'Un comité está integrado por dos o más personas. Una persona puede o no pertenecer a comités. Cada comité tiene un coordinador que forma parte del comité y una misma persona puede coordinar más de un comité. '/
@startuml
abstract class persona
class coordinador
class comité{
    +coordinador: persona
}
comité "0..*" -- "2..*" persona: integado por
comité "1..*" *-- "1" coordinador: coordina
coordinador --|> persona
@enduml